# AST/ASF file generated using VICON BodyLanguage
# -----------------------------------------------
:version 1.10
:name VICON
:units
  mass 1.0
  length 0.45
  angle deg
:documentation
   .ast/.asf automatically generated from VICON data using
   VICON BodyBuilder and BodyLanguage model FoxedUp or BRILLIANT.MOD
:root
   order TX TY TZ RX RY RZ
   axis XYZ
   position 0 0 0  
   orientation 0 0 0 
:bonedata
  begin
     id 1 
     name lhipjoint
     direction 0.603808 -0.713975 0.35448 
     length 2.2025 
     axis 0 0 0  XYZ
  end
  begin
     id 2 
     name lfemur
     direction 0.34202 -0.939693 0  
     length 6.55877  
     axis 0 0 20  XYZ
    dof rx ry rz
    limits (-160.0 20.0)
           (-70.0 70.0)
           (-60.0 70.0)
  end
  begin
     id 3 
     name ltibia
     direction 0.34202 -0.939693 0   
     length 6.80302   
     axis 0 0 20   XYZ
    dof rx
    limits (-10.0 170.0)
  end
  begin
     id 4 
     name lfoot
     direction 0.091848 -0.25235 0.963267   
     length 2.03446   
     axis -90 7.62852e-016 20   XYZ
    dof rx rz
    limits (-45.0 90.0)
           (-70.0 20.0)
  end
  begin
     id 5 
     name ltoes
     direction 1.53608e-011 -4.21925e-011 1   
     length 1.02033   
     axis -90 7.62852e-016 20   XYZ
    dof rx
    limits (-90.0 20.0)
  end
  begin
     id 6 
     name rhipjoint
     direction -0.587285 -0.724947 0.359928   
     length 2.16916  
     axis 0 0 0  XYZ 
  end
  begin
     id 7 
     name rfemur
     direction -0.34202 -0.939693 0   
     length 6.43173   
     axis 0 0 -20   XYZ
    dof rx ry rz
    limits (-160.0 20.0)
           (-70.0 70.0)
           (-70.0 60.0)
  end
  begin
     id 8 
     name rtibia
     direction -0.34202 -0.939693 0   
     length 6.70662   
     axis 0 0 -20   XYZ
    dof rx
    limits (-10.0 170.0)
 end
 begin
     id 9 
     name rfoot
     direction -0.11854 -0.325686 0.938018   
     length 2.0773  
     axis -90 -7.62852e-016 -20   XYZ
    dof rx rz
    limits (-45.0 90.0)
           (-20.0 70.0)
  end
  begin
     id 10 
     name rtoes
     direction -1.53547e-011 -4.21838e-011 1   
     length 1.03267   
     axis -90 -7.62852e-016 -20   XYZ
    dof rx
    limits (-90.0 20.0)
  end
  begin
     id 11 
     name lowerback
     direction -0.0286554 0.999539 0.0100613   
     length 2.08751   
     axis 0 0 0   XYZ
    dof rx ry rz
    limits (-20.0 45.0)
           (-30.0 30.0)
           (-30.0 30.0)
  end
  begin
     id 12 
     name upperback
     direction 0.0227093 0.999705 -0.00860929   
     length 2.08517   
     axis 0 0 0   XYZ
    dof rx ry rz
    limits (-20.0 45.0)
           (-30.0 30.0)
           (-30.0 30.0)
  end
  begin
     id 13 
     name thorax
     direction 0.0351627 0.999285 -0.013892   
     length 2.08412   
     axis 0 0 0   XYZ
    dof rx ry rz
    limits (-20.0 45.0)
           (-30.0 30.0)
           (-30.0 30.0)
  end
  begin
     id 14 
     name lowerneck
     direction -0.0696283 0.997344 0.0213922   
     length 1.44164   
     axis 0 0 0   XYZ
    dof rx ry rz
    limits (-20.0 45.0)
           (-30.0 30.0)
           (-30.0 30.0)
  end
  begin
     id 15 
     name upperneck
     direction 0.0531 0.990412 -0.127531   
     length 1.45022   
     axis 0 0 0   XYZ
    dof rx ry rz
    limits (-20.0 45.0)
           (-30.0 30.0)
           (-30.0 30.0)
  end
  begin
     id 16
     name head
     direction 0.0188154 0.998548 -0.0504727  
     length 1.45845  
     axis 0 0 0   XYZ
    dof rx ry rz
    limits (-20.0 45.0)
           (-30.0 30.0)
           (-30.0 30.0)
  end
  begin
     id 17 
     name lclavicle
     direction 0.961559 0.260051 0.088188  
     length 2.86057  
     axis 0 0 0   XYZ
    dof ry rz
    limits (-20.0 10.0)
           (0.0 20.0)
  end
  begin
     id 18 
     name lhumerus
     direction 1 -4.48959e-011 2.88185e-027   
     length 4.36901   
     axis 180 -30 -90   XYZ
    dof rx ry rz
    limits (-60.0 90.0)
           (-90.0 90.0)
           (-90.0 90.0)
  end
  begin
     id 19
     name lradius
     direction 1 -4.48965e-011 -3.92618e-028   
     length 3.21737   
     axis 180 -30 -90   XYZ
    dof rx
    limits (-10.0 170.0)
  end
  begin
     id 20
     name lwrist
     direction 1 -4.49037e-011 2.57246e-027   
     length 1.60869   
     axis -1.61769e-015 90 90   XYZ
    dof ry
    limits (-180.0 0.0)
 end
  begin
     id 21 
     name lhand
     direction 1 -4.48807e-011 5.12958e-027   
     length 0.564313   
     axis -3.27988e-015 90 90   XYZ
    dof rx rz
    limits (-90.0 90.0)
           (-45.0 45.0)
  end
  begin
     id 22 
     name lfingers
     direction 1 -4.48879e-011 1.02687e-026   
     length 0.454963   
     axis -6.5598e-015 90 90   XYZ
    dof rx
    limits (0.0 90.0)
  end
  begin
     id 23
     name lthumb
     direction 0.707107 -6.3475e-011 0.707107   
     length 0.653239   
     axis -90 45 2.19363e-014   XYZ
    dof rx rz
    limits (-45.0 45.0)
           (-45.0 45.0)
  end
  begin
     id 24 
     name rclavicle
     direction -0.954677 0.253915 0.155304   
     length 3.11497  
     axis 0 0 0   XYZ 
    dof ry rz
    limits (-10.0 20.0)
           (-20.0 0.0)
  end
  begin
     id 25 
     name rhumerus
     direction -1 -4.48958e-011 -8.20169e-028  
     length 4.34118   
     axis 180 30 90   XYZ
    dof rx ry rz
    limits (-90.0 60.0)
           (-90.0 90.0)
           (-90.0 90.0)
  end
  begin
     id 26 
     name rradius
     direction -1 -4.48978e-011 1.5676e-027   
     length 3.09531   
     axis 180 30 90   XYZ
    dof rx
    limits (-10.0 170.0)
  end
  begin
     id 27 
     name rwrist
     direction -1 -4.49001e-011 2.57123e-027   
     length 1.54765   
     axis -1.61769e-015 -90 -90   XYZ
    dof ry
    limits (-180.0 0.0)
  end
  begin
     id 28
     name rhand
     direction -1 -4.48847e-011 5.13225e-027   
     length 0.597446   
     axis -3.27988e-015 -90 -90   XYZ
    dof rx rz
    limits (-90.0 90.0)
           (-45.0 45.0)
  end
  begin
     id 29
     name rfingers
     direction -1 -4.49094e-011 1.02974e-026   
     length 0.481677   
     axis -6.5598e-015 -90 -90   XYZ
    dof rx
    limits (0.0 90.0)
  end
  begin
     id 30
     name rthumb
     direction -0.707107 -6.34859e-011 0.707107   
     length 0.691594   
     axis -90 -45 -2.19363e-014   XYZ
    dof rx rz
    limits (-45.0 45.0)
           (-45.0 45.0)
  end
:hierarchy
  begin
    root lhipjoint rhipjoint lowerback
    lhipjoint lfemur
    lfemur ltibia
    ltibia lfoot
    lfoot ltoes
    rhipjoint rfemur
    rfemur rtibia
    rtibia rfoot
    rfoot rtoes
    lowerback upperback
    upperback thorax
    thorax lowerneck lclavicle rclavicle
    lowerneck upperneck
    upperneck head
    lclavicle lhumerus
    lhumerus lradius
    lradius lwrist
    lwrist lhand lthumb
    lhand lfingers
    rclavicle rhumerus
    rhumerus rradius
    rradius rwrist
    rwrist rhand rthumb
    rhand rfingers
  end

#!OML:ASF I:\Acrobat_Osman\acrobat\cartwheel_test 2\Patient 1\Session 1\acrobat.ASF
:FULLY-SPECIFIED
:DEGREES
937
root 10.2832 15.8903 -0.295413 -130.982 -122.776 -202.196
lowerback 10.2559 -1.3781 -8.44596
upperback 4.5226 -2.63391 3.95221
thorax -0.40025 -1.53571 9.25576
lowerneck -8.24416 -0.856742 -5.24339
upperneck 27.8544 0.222025 -4.1065
head 10.2652 -1.10669 -0.56849
rclavicle 3.49861e-014 5.725e-014
rhumerus -45.8208 -14.9155 -62.5049
rradius 44.0937
rwrist -12.3838
rhand -30.321 -1045.69
rfingers 7.12502
rthumb -3.62746 4.36529
lclavicle 3.49861e-014 5.725e-014
lhumerus -166.23 200.904 241.536
lradius 77.9046
lwrist -355.824
lhand -36.0276 51.8758
lfingers 7.12502
lthumb -9.1364 441.658
rfemur -29.3227 5.18452 14.2288
rtibia 33.1148
rfoot -9.06754 -14.2587
rtoes 7.80183
lfemur -47.4519 5.05149 7.42899
ltibia 42.841
lfoot -13.5012 12.2916
ltoes -43.2667
938
root 10.2401 15.9941 -0.778038 -135.478 -123.987 -197.507
lowerback 8.87174 -1.60326 -9.01423
upperback 4.16148 -2.86254 4.52303
thorax 0.101991 -1.67567 10.1758
lowerneck -8.57566 -1.41026 -7.16982
upperneck 29.3858 -0.24421 -3.71426
head 10.9412 -1.54031 -0.182648
rclavicle -2.46493e-014 3.65764e-014
rhumerus -42.8861 -5.44726 -69.7438
rradius 48.1579
rwrist -10.2825
rhand -29.5016 -1054.38
rfingers 7.12502
rthumb -2.83618 -4.34576
lclavicle -2.46493e-014 3.65764e-014
lhumerus -170.425 205.886 247.54
lradius 81.3978
lwrist -358.274
lhand -36.1396 48.3505
lfingers 7.12502
lthumb -9.2445 438.128
rfemur -28.7764 6.2725 12.2324
rtibia 32.687
rfoot -3.03253 -12.8387
rtoes -0.774893
lfemur -45.2055 -1.92989 11.33
ltibia 38.0553
lfoot -16.526 15.9871
ltoes -42.8218
939
root 10.2003 16.0328 -1.24507 -139.928 -125.314 -193.743
lowerback 7.97308 -1.93856 -9.37498
upperback 3.9136 -3.26004 4.94679
thorax 0.488628 -1.89879 10.8419
lowerneck -9.02769 -1.73864 -8.69251
upperneck 30.7959 -0.388353 -3.52946
head 11.6186 -1.82146 0.0950315
rclavicle -2.38542e-014 -7.15625e-014
rhumerus -40.585 2.99204 -73.8581
rradius 52.0601
rwrist -6.55654
rhand -27.7389 -1052.63
rfingers 7.12502
rthumb -1.13375 -2.60881
lclavicle -2.38542e-014 -7.15625e-014
lhumerus -175.439 210.104 253.352
lradius 85.1942
lwrist -359.753
lhand -37.9212 46.7531
lfingers 7.12502
lthumb -10.9633 436.447
rfemur -27.2325 7.45542 10.998
rtibia 32.1857
rfoot 0.179047 -12.5081
rtoes -14.6469
lfemur -42.4405 -9.40218 14.8897
ltibia 34.4973
lfoot -23.4241 18.8747
ltoes -34.2096
940
root 10.1713 16.0254 -1.71133 -143.12 -126.064 -191.646
lowerback 6.67729 -1.27092 -8.09248
upperback 3.6506 -2.18178 3.95269
thorax 0.539716 -1.29769 8.87845
lowerneck -8.84191 -2.73875 -7.51752
upperneck 31.9846 -2.15327 -3.11911
head 12.0703 -2.45302 -0.190771
rclavicle -4.05521e-014 3.57812e-014
rhumerus -39.5511 6.15645 -76.8592
rradius 56.8511
rwrist -2.13172
rhand -23.6456 -1048.15
rfingers 7.12502
rthumb 2.81967 1.89063
lclavicle -4.05521e-014 3.57812e-014
lhumerus -179.207 216.903 256.524
lradius 89.2108
lwrist -360.619
lhand -37.7459 44.4013
lfingers 7.12502
lthumb -10.7941 434.104
rfemur -25.8209 8.68049 10.7751
rtibia 31.9875
rfoot -1.12142 -11.8387
rtoes -20.4979
lfemur -38.9218 -12.9586 16.0662
ltibia 32.5475
lfoot -28.2822 24.7876
ltoes -28.3753
941
root 10.1591 15.959 -2.19013 -145.926 -126.263 -190.582
lowerback 5.85516 -0.663613 -7.10321
upperback 3.42819 -1.2614 3.21672
thorax 0.513574 -0.794713 7.44219
lowerneck -8.58693 -3.22781 -7.03191
upperneck 32.6251 -3.06244 -2.79243
head 12.2868 -2.77271 -0.275458
rclavicle 1.23246e-014 -3.57812e-014
rhumerus -37.9422 9.55169 -78.1257
rradius 62.2083
rwrist 1.53477
rhand -23.2233 -1049.31
rfingers 7.12502
rthumb 3.22747 0.732753
lclavicle 1.23246e-014 -3.57812e-014
lhumerus -184.049 222.276 260.115
lradius 94.0606
lwrist -360.002
lhand -37.909 42.0691
lfingers 7.12502
lthumb -10.9515 431.763
rfemur -24.1564 8.47936 11.8197
rtibia 32.1024
rfoot -4.38407 -10.5529
rtoes -27.15
lfemur -34.5367 -12.0089 14.6946
ltibia 32.0881
lfoot -29.0734 28.9168
ltoes -26.6385
942
root 10.1485 15.8741 -2.68612 -147.972 -126.409 -190.006
lowerback 4.80447 -0.298726 -6.46071
upperback 2.94374 -0.678304 2.85198
thorax 0.469327 -0.465534 6.64203
lowerneck -7.8845 -3.39552 -6.80296
upperneck 32.5725 -3.39507 -2.84351
head 12.1175 -2.89764 -0.35878
rclavicle -3.65764e-014 -3.18055e-015
rhumerus -36.2732 12.7071 -77.9067
rradius 68.1504
rwrist 3.04887
rhand -24.7685 -1047.57
rfingers 7.12502
rthumb 1.73517 2.46083
lclavicle -3.65764e-014 -3.18055e-015
lhumerus -189.605 225.029 264.651
lradius 98.559
lwrist -361.23
lhand -36.711 39.7927
lfingers 7.12502
lthumb -9.79582 429.545
rfemur -23.0459 7.25509 13.7633
rtibia 32.7567
rfoot -8.09611 -10.4848
rtoes -26.7094
lfemur -30.4855 -9.24907 13.1179
ltibia 32.335
lfoot -29.1495 26.4739
ltoes -21.6604
943
root 10.1338 15.7944 -3.17425 -150.574 -126.815 -189.297
lowerback 4.39068 -0.114199 -5.89869
upperback 2.59843 -0.385971 2.55873
thorax 0.283381 -0.28915 5.99452
lowerneck -7.15583 -3.41542 -6.62957
upperneck 32.118 -3.50341 -2.87494
head 11.7777 -2.9172 -0.384569
rclavicle -4.25399e-014 9.18385e-014
rhumerus -34.14 14.7053 -76.8992
rradius 74.0973
rwrist 2.22434
rhand -24.9931 -1047.92
rfingers 7.12502
rthumb 1.51822 2.10297
lclavicle -4.25399e-014 9.18385e-014
lhumerus -194.833 227.159 269.005
lradius 102.4
lwrist -362.401
lhand -37.3918 38.4088
lfingers 7.12502
lthumb -10.4526 428.129
rfemur -21.5712 6.81944 15.8356
rtibia 33.8253
rfoot -12.5352 -11.8492
rtoes -17.6149
lfemur -26.1629 -5.90551 11.0613
ltibia 33.055
lfoot -25.356 25.5889
ltoes -29.1103
944
root 10.1254 15.702 -3.64965 -153.017 -127.247 -188.037
lowerback 3.55188 -0.350034 -6.02539
upperback 2.22514 -0.655774 2.54345
thorax 0.407473 -0.416136 6.05326
lowerneck -6.74693 -3.15113 -7.0406
upperneck 31.4442 -3.03645 -3.02455
head 11.4289 -2.75692 -0.289854
rclavicle 5.36719e-014 5.1684e-015
rhumerus -31.3404 16.4901 -75.0915
rradius 79.8517
rwrist -0.971609
rhand -25.6665 -1049.4
rfingers 7.12502
rthumb 0.867889 0.622073
lclavicle 5.36719e-014 5.1684e-015
lhumerus -199.242 228.068 272.865
lradius 105.349
lwrist -364.677
lhand -39.3934 40.3509
lfingers 7.12502
lthumb -12.383 429.964
rfemur -21.0945 7.29978 17.254
rtibia 35.2773
rfoot -16.9786 -13.6756
rtoes 22.7069
lfemur -22.619 -2.52916 8.75311
ltibia 33.9586
lfoot -23.1712 23.2989
ltoes -29.1726
945
root 10.1155 15.6341 -4.09991 -154.96 -127.811 -186.33
lowerback 2.00485 -0.643724 -6.3395
upperback 1.74588 -0.96333 2.47327
thorax 0.829677 -0.570745 6.14723
lowerneck -6.34593 -3.00475 -7.41487
upperneck 30.4275 -2.77546 -3.06791
head 10.9576 -2.6505 -0.181367
rclavicle 9.54166e-014 3.57812e-015
rhumerus -28.8902 16.8645 -72.9033
rradius 85.5162
rwrist -5.82719
rhand -27.0132 -1051.05
rfingers 7.12502
rthumb -0.432808 -1.02926
lclavicle 9.54166e-014 3.57812e-015
lhumerus -201.164 227.18 274.789
lradius 109.173
lwrist -357.866
lhand -34.7491 32.7845
lfingers 7.12502
lthumb -7.9026 422.617
rfemur -21.639 7.35377 18.1047
rtibia 36.7293
rfoot -20.825 -14.85
rtoes 27.4531
lfemur -20.1154 1.36675 5.86922
ltibia 35.4181
lfoot -20.4312 21.6247
ltoes -32.8175
946
root 10.1273 15.539 -4.51437 -156.428 -128.783 -184.882
lowerback 0.130182 -0.660457 -5.79064
upperback 1.38467 -0.871282 2.00555
thorax 1.47588 -0.524152 5.32041
lowerneck -6.04336 -3.29786 -7.14511
upperneck 29.3989 -3.32799 -2.7266
head 10.5118 -2.7879 -0.135377
rclavicle 9.74045e-015 1.19271e-015
rhumerus -27.4594 15.0582 -70.9444
rradius 91.0412
rwrist -10.8562
rhand -29.2084 -1051.77
rfingers 7.12502
rthumb -2.55297 -1.73546
lclavicle 9.74045e-015 1.19271e-015
lhumerus -202.765 228.816 276.181
lradius 110.62
lwrist -358.515
lhand -36.1422 32.4321
lfingers 7.12502
lthumb -9.247 422.209
rfemur -22.5707 6.3767 18.8665
rtibia 38.1337
rfoot -23.9353 -14.7027
rtoes 27.8619
lfemur -17.9021 3.33206 3.38964
ltibia 37.2703
lfoot -20.2028 19.8684
ltoes -30.2089
947
root 10.1565 15.4533 -4.91371 -157.628 -130.137 -183.811
lowerback -1.74648 -0.828542 -4.45347
upperback 1.18247 -1.01298 1.33377
thorax 2.30056 -0.587575 3.83707
lowerneck -6.22796 -3.55919 -6.63726
upperneck 28.7951 -3.8284 -2.37008
head 10.3193 -2.89671 -0.138408
rclavicle 2.127e-014 6.36111e-015
rhumerus -26.5258 13.0685 -69.3545
rradius 96.2046
rwrist -15.044
rhand -31.0081 -1051.13
rfingers 7.12502
rthumb -4.29094 -1.0645
lclavicle 2.127e-014 6.36111e-015
lhumerus -203.774 230.333 276.572
lradius 112.133
lwrist -358.64
lhand -37.0912 35.5493
lfingers 7.12502
lthumb -10.1626 425.284
rfemur -23.513 5.13915 19.6871
rtibia 39.3695
rfoot -26.3138 -13.8847
rtoes 27.6403
lfemur -15.553 5.57516 0.850431
ltibia 39.5754
lfoot -19.1619 18.7155
ltoes -29.5385
948
root 10.19 15.4008 -5.31638 -158.82 -131.565 -182.925
lowerback -3.39932 -0.955811 -2.15411
upperback 1.10954 -1.17431 -0.0776207
thorax 3.08926 -0.625876 1.05667
lowerneck -6.18074 -3.73526 -5.54061
upperneck 28.0068 -4.4489 -1.52602
head 10.0069 -2.95019 -0.0732426
rclavicle 3.06128e-014 -2.8625e-014
rhumerus -26.2377 10.4775 -69.0383
rradius 100.722
rwrist -17.2488
rhand -32.2162 -1049.59
rfingers 7.12502
rthumb -5.45746 0.498489
lclavicle 3.06128e-014 -2.8625e-014
lhumerus -204.316 231.969 275.335
lradius 113.507
lwrist -358.145
lhand -37.0304 37.2988
lfingers 7.12502
lthumb -10.1039 427.036
rfemur -24.3407 4.19285 20.4974
rtibia 40.5042
rfoot -28.0179 -13.254
rtoes 26.8365
lfemur -13.2081 7.53708 -1.59154
ltibia 41.9328
lfoot -17.8123 16.9861
ltoes -32.6252
949
root 10.2371 15.3417 -5.73388 -159.826 -133.023 -182.475
lowerback -3.4641 -1.46954 -3.802
upperback 0.367933 -1.8453 1.85956
thorax 2.50503 -0.987478 3.94925
lowerneck -5.55391 -3.78876 -7.13334
upperneck 26.9821 -4.05752 -2.5853
head 9.54719 -3.01585 -0.103518
rclavicle -4.91992e-015 1.11319e-014
rhumerus -25.6006 11.3929 -63.9023
rradius 104.972
rwrist -18.8677
rhand -33.376 -1048.16
rfingers 7.12502
rthumb -6.57717 1.965
lclavicle -4.91992e-015 1.11319e-014
lhumerus -206.276 230.083 279.804
lradius 114.005
lwrist -358.901
lhand -36.6348 36.8123
lfingers 7.12502
lthumb -9.72234 426.568
rfemur -25.0653 3.36616 21.5828
rtibia 41.3961
rfoot -29.0399 -12.8418
rtoes 26.1934
lfemur -10.5741 9.536 -3.62502
ltibia 44.3104
lfoot -16.8786 14.8462
ltoes -32.2513
950
root 10.2919 15.2826 -6.15674 -160.683 -134.667 -182.395
lowerback -3.64086 -1.82287 -3.30869
upperback 0.0770826 -2.34661 2.29012
thorax 2.35115 -1.2277 4.08583
lowerneck -5.3021 -3.8714 -7.28564
upperneck 25.809 -4.1176 -2.78742
head 9.08641 -3.03748 -0.124784
rclavicle 1.06459e-014 -2.63265e-014
rhumerus -25.4902 10.5821 -61.4036
rradius 108.872
rwrist -18.6883
rhand -33.9656 -1046.94
rfingers 7.12502
rthumb -7.14634 3.20332
lclavicle 1.06459e-014 -2.63265e-014
lhumerus -207.104 229.776 280.923
lradius 114.712
lwrist -359.287
lhand -36.5793 36.6577
lfingers 7.12502
lthumb -9.66872 426.416
rfemur -25.6537 2.38758 22.9832
rtibia 42.0487
rfoot -29.9878 -12.3027
rtoes 27.8078
lfemur -7.63245 11.4697 -5.2294
ltibia 46.4033
lfoot -16.6558 11.706
ltoes -33.8933
951
root 10.3323 15.2597 -6.5698 -161.649 -136.563 -182.186
lowerback -3.72611 -2.32343 -2.95223
upperback -0.0870414 -3.04063 2.70795
thorax 2.30106 -1.57119 4.2739
lowerneck -5.51512 -3.87449 -7.20946
upperneck 24.7822 -4.02165 -3.14457
head 8.75647 -2.98318 -0.23428
rclavicle 2.72087e-014 4.07509e-014
rhumerus -25.5524 9.80226 -59.2098
rradius 112.44
rwrist -17.6202
rhand -34.2595 -1045.33
rfingers 7.12502
rthumb -7.43006 4.81999
lclavicle 2.72087e-014 4.07509e-014
lhumerus -207.132 229.518 281.123
lradius 115.37
lwrist -359.218
lhand -36.9032 36.8015
lfingers 7.12502
lthumb -9.98129 426.545
rfemur -26.0366 1.51922 24.3295
rtibia 42.4244
rfoot -31.1974 -12.1984
rtoes 30.5201
lfemur -4.94857 13.9067 -6.82732
ltibia 48.104
lfoot -14.8462 9.31654
ltoes -38.2013
